# xmcd
#
# Track frame offsets: 
#        150
#        12801
#        25993
#        37459
#        47905
#        62542
#        75366
#        86513
#        98666
#        110104
#        122070
#        134242
#        144670
#        156726
#        166938
#        179398
#        191449
#        201046
#        213741
#        226038
#        237392
#        265345
#        279909
#        295899
#        309477
#
# Disc length: 4291 seconds
#
# Revision: 0
# Processed by: cddbd v1.5.2PL0 Copyright (c) Steve Scherf et al.
# Submitted via: ExactAudioCopy v1.0b4
#
DISCID=7110c119
DTITLE=B.B. King - The Complete Singles As and Bs 1949-62  disc 4
DYEAR=2015
DGENRE=Blues
TTITLE0=I Wonder
TTITLE1=I Need You So Bad
TTITLE2=The Key To My Kingdom
TTITLE3=My Heart Belongs To Only You
TTITLE4=You Know I Go For You
TTITLE5=Why Do Everything Happen To Me
TTITLE6=Days Of Old
TTITLE7=Don't Look Now, But You Got The Blues
TTITLE8=Please Accept My Love
TTITLE9=You've Been An Angel
TTITLE10=Worry Worry
TTITLE11=I Am
TTITLE12=The Fool
TTITLE13=Come By Here
TTITLE14=A Lonely Lover's Plea
TTITLE15=Woman I Love
TTITLE16=Time To Say Goodbye
TTITLE17=Every Day I Have The Blues
TTITLE18=Sugar Mama
TTITLE19=Mean Old Frisco
TTITLE20=Sweet Sixteen Parts 1 and 2
TTITLE21=Got A Right To Love My Baby
TTITLE22=My Own Fault
TTITLE23=Partin' Time
TTITLE24=Good Man Gone Bad
EXTD=
EXTT0=
EXTT1=
EXTT2=
EXTT3=
EXTT4=
EXTT5=
EXTT6=
EXTT7=
EXTT8=
EXTT9=
EXTT10=
EXTT11=
EXTT12=
EXTT13=
EXTT14=
EXTT15=
EXTT16=
EXTT17=
EXTT18=
EXTT19=
EXTT20=
EXTT21=
EXTT22=
EXTT23=
EXTT24=
PLAYORDER=
